<svg width="52" height="12" viewBox="0 0 52 12" fill="none" xmlns="http://www.w3.org/2000/svg">
<g clip-path="url(#clip0_1_194)">
<path d="M7.12201 3.756C7.12201 3.84 7.12201 3.9 7.12201 3.966C7.12201 4.482 7.12201 5.004 7.12201 5.52C7.12201 6.288 7.59001 6.75 8.35201 6.756C8.86201 6.756 9.36601 6.756 9.87601 6.756C9.99001 6.756 10.056 6.786 10.104 6.894C10.242 7.182 10.386 7.47 10.53 7.752C10.578 7.842 10.572 7.902 10.512 7.986C8.93401 10.02 6.88201 11.292 4.35601 11.808C3.23401 12.036 2.09401 12.012 0.960013 11.988C0.474013 11.982 0.0540126 11.574 0.00601257 11.1C-0.0539874 10.578 0.258013 10.104 0.762013 9.966C1.12201 9.87 1.48801 9.798 1.85401 9.72C2.86801 9.51 3.60001 8.94 4.06201 8.016C4.74001 6.654 5.43001 5.292 6.10801 3.924C6.16801 3.804 6.23401 3.75 6.37201 3.756C6.61201 3.768 6.85801 3.756 7.12801 3.756H7.12201Z" fill="#CF2F2F"/>
<path d="M10.086 2.34C10.182 2.028 10.188 1.722 10.098 1.422C10.044 1.236 9.95401 1.056 9.85801 0.882004C9.73201 0.636004 9.73201 0.390004 9.88801 0.210004C10.038 0.0360036 10.284 -0.0539964 10.482 0.0360036C10.614 0.0960036 10.746 0.198004 10.818 0.318004C11.322 1.14 11.412 2.004 11.052 2.904C10.998 3.036 11.028 3.114 11.112 3.21C11.988 4.266 12.192 5.46 11.82 6.762C11.766 6.954 11.676 7.128 11.442 7.134C11.208 7.14 11.028 7.038 10.92 6.822C10.848 6.672 10.776 6.516 10.71 6.36C10.596 6.114 10.404 5.988 10.128 5.988C9.61201 5.988 9.09001 5.988 8.57401 5.988C8.09401 5.988 7.88401 5.772 7.88401 5.292C7.88401 4.746 7.88401 4.2 7.88401 3.648C7.88401 3.198 7.66801 2.988 7.21801 2.982C7.06801 2.982 6.91201 2.982 6.76801 2.952C6.55801 2.916 6.42601 2.778 6.41401 2.598C6.39601 2.406 6.52201 2.298 6.67201 2.22C7.09201 2.01 7.54801 1.902 8.01601 1.878C8.70601 1.842 9.36001 1.956 9.97801 2.286C10.008 2.304 10.038 2.31 10.086 2.328V2.34Z" fill="#CF2F2F"/>
</g>
<g clip-path="url(#clip1_1_194)">
<path d="M27.122 3.756C27.122 3.84 27.122 3.9 27.122 3.966C27.122 4.482 27.122 5.004 27.122 5.52C27.122 6.288 27.59 6.75 28.352 6.756C28.862 6.756 29.366 6.756 29.876 6.756C29.99 6.756 30.056 6.786 30.104 6.894C30.242 7.182 30.386 7.47 30.53 7.752C30.578 7.842 30.572 7.902 30.512 7.986C28.934 10.02 26.882 11.292 24.356 11.808C23.234 12.036 22.094 12.012 20.96 11.988C20.474 11.982 20.054 11.574 20.006 11.1C19.946 10.578 20.258 10.104 20.762 9.966C21.122 9.87 21.488 9.798 21.854 9.72C22.868 9.51 23.6 8.94 24.062 8.016C24.74 6.654 25.43 5.292 26.108 3.924C26.168 3.804 26.234 3.75 26.372 3.756C26.612 3.768 26.858 3.756 27.128 3.756H27.122Z" fill="#DADADA"/>
<path d="M30.086 2.34C30.182 2.028 30.188 1.722 30.098 1.422C30.044 1.236 29.954 1.056 29.858 0.882004C29.732 0.636004 29.732 0.390004 29.888 0.210004C30.038 0.0360036 30.284 -0.0539964 30.482 0.0360036C30.614 0.0960036 30.746 0.198004 30.818 0.318004C31.322 1.14 31.412 2.004 31.052 2.904C30.998 3.036 31.028 3.114 31.112 3.21C31.988 4.266 32.192 5.46 31.82 6.762C31.766 6.954 31.676 7.128 31.442 7.134C31.208 7.14 31.028 7.038 30.92 6.822C30.848 6.672 30.776 6.516 30.71 6.36C30.596 6.114 30.404 5.988 30.128 5.988C29.612 5.988 29.09 5.988 28.574 5.988C28.094 5.988 27.884 5.772 27.884 5.292C27.884 4.746 27.884 4.2 27.884 3.648C27.884 3.198 27.668 2.988 27.218 2.982C27.068 2.982 26.912 2.982 26.768 2.952C26.558 2.916 26.426 2.778 26.414 2.598C26.396 2.406 26.522 2.298 26.672 2.22C27.092 2.01 27.548 1.902 28.016 1.878C28.706 1.842 29.36 1.956 29.978 2.286C30.008 2.304 30.038 2.31 30.086 2.328V2.34Z" fill="#DADADA"/>
</g>
<g clip-path="url(#clip2_1_194)">
<path d="M47.122 3.756C47.122 3.84 47.122 3.9 47.122 3.966C47.122 4.482 47.122 5.004 47.122 5.52C47.122 6.288 47.59 6.75 48.352 6.756C48.862 6.756 49.366 6.756 49.876 6.756C49.99 6.756 50.056 6.786 50.104 6.894C50.242 7.182 50.386 7.47 50.53 7.752C50.578 7.842 50.572 7.902 50.512 7.986C48.934 10.02 46.882 11.292 44.356 11.808C43.234 12.036 42.094 12.012 40.96 11.988C40.474 11.982 40.054 11.574 40.006 11.1C39.946 10.578 40.258 10.104 40.762 9.966C41.122 9.87 41.488 9.798 41.854 9.72C42.868 9.51 43.6 8.94 44.062 8.016C44.74 6.654 45.43 5.292 46.108 3.924C46.168 3.804 46.234 3.75 46.372 3.756C46.612 3.768 46.858 3.756 47.128 3.756H47.122Z" fill="#DADADA"/>
<path d="M50.086 2.34C50.182 2.028 50.188 1.722 50.098 1.422C50.044 1.236 49.954 1.056 49.858 0.882004C49.732 0.636004 49.732 0.390004 49.888 0.210004C50.038 0.0360036 50.284 -0.0539964 50.482 0.0360036C50.614 0.0960036 50.746 0.198004 50.818 0.318004C51.322 1.14 51.412 2.004 51.052 2.904C50.998 3.036 51.028 3.114 51.112 3.21C51.988 4.266 52.192 5.46 51.82 6.762C51.766 6.954 51.676 7.128 51.442 7.134C51.208 7.14 51.028 7.038 50.92 6.822C50.848 6.672 50.776 6.516 50.71 6.36C50.596 6.114 50.404 5.988 50.128 5.988C49.612 5.988 49.09 5.988 48.574 5.988C48.094 5.988 47.884 5.772 47.884 5.292C47.884 4.746 47.884 4.2 47.884 3.648C47.884 3.198 47.668 2.988 47.218 2.982C47.068 2.982 46.912 2.982 46.768 2.952C46.558 2.916 46.426 2.778 46.414 2.598C46.396 2.406 46.522 2.298 46.672 2.22C47.092 2.01 47.548 1.902 48.016 1.878C48.706 1.842 49.36 1.956 49.978 2.286C50.008 2.304 50.038 2.31 50.086 2.328V2.34Z" fill="#DADADA"/>
</g>
<defs>
<clipPath id="clip0_1_194">
<rect width="12" height="12" fill="white"/>
</clipPath>
<clipPath id="clip1_1_194">
<rect width="12" height="12" fill="white" transform="translate(20)"/>
</clipPath>
<clipPath id="clip2_1_194">
<rect width="12" height="12" fill="white" transform="translate(40)"/>
</clipPath>
</defs>
</svg>
