<svg width="74" height="22" viewBox="0 0 74 22" fill="none" xmlns="http://www.w3.org/2000/svg">
<rect width="74" height="22" rx="11" fill="white"/>
<g clip-path="url(#clip0_50_27)">
<path d="M16.309 8.38199C16.309 8.47999 16.309 8.54999 16.309 8.62699C16.309 9.22899 16.309 9.83799 16.309 10.44C16.309 11.336 16.855 11.875 17.744 11.882C18.339 11.882 18.927 11.882 19.522 11.882C19.655 11.882 19.732 11.917 19.788 12.043C19.949 12.379 20.117 12.715 20.285 13.044C20.341 13.149 20.334 13.219 20.264 13.317C18.423 15.69 16.029 17.174 13.082 17.776C11.773 18.042 10.443 18.014 9.11999 17.986C8.55299 17.979 8.06299 17.503 8.00699 16.95C7.93699 16.341 8.30099 15.788 8.88899 15.627C9.30899 15.515 9.73599 15.431 10.163 15.34C11.346 15.095 12.2 14.43 12.739 13.352C13.53 11.763 14.335 10.174 15.126 8.57799C15.196 8.43799 15.273 8.37499 15.434 8.38199C15.714 8.39599 16.001 8.38199 16.316 8.38199H16.309Z" fill="#CF2F2F"/>
<path d="M19.767 6.73C19.879 6.366 19.886 6.009 19.781 5.659C19.718 5.442 19.613 5.232 19.501 5.029C19.354 4.742 19.354 4.455 19.536 4.245C19.711 4.042 19.998 3.937 20.229 4.042C20.383 4.112 20.537 4.231 20.621 4.371C21.209 5.33 21.314 6.338 20.894 7.388C20.831 7.542 20.866 7.633 20.964 7.745C21.986 8.977 22.224 10.37 21.79 11.889C21.727 12.113 21.622 12.316 21.349 12.323C21.076 12.33 20.866 12.211 20.74 11.959C20.656 11.784 20.572 11.602 20.495 11.42C20.362 11.133 20.138 10.986 19.816 10.986C19.214 10.986 18.605 10.986 18.003 10.986C17.443 10.986 17.198 10.734 17.198 10.174C17.198 9.537 17.198 8.9 17.198 8.256C17.198 7.731 16.946 7.486 16.421 7.479C16.246 7.479 16.064 7.479 15.896 7.444C15.651 7.402 15.497 7.241 15.483 7.031C15.462 6.807 15.609 6.681 15.784 6.59C16.274 6.345 16.806 6.219 17.352 6.191C18.157 6.149 18.92 6.282 19.641 6.667C19.676 6.688 19.711 6.695 19.767 6.716V6.73Z" fill="#CF2F2F"/>
</g>
<g clip-path="url(#clip1_50_27)">
<path d="M38.309 8.38199C38.309 8.47999 38.309 8.54999 38.309 8.62699C38.309 9.22899 38.309 9.83799 38.309 10.44C38.309 11.336 38.855 11.875 39.744 11.882C40.339 11.882 40.927 11.882 41.522 11.882C41.655 11.882 41.732 11.917 41.788 12.043C41.949 12.379 42.117 12.715 42.285 13.044C42.341 13.149 42.334 13.219 42.264 13.317C40.423 15.69 38.029 17.174 35.082 17.776C33.773 18.042 32.443 18.014 31.12 17.986C30.553 17.979 30.063 17.503 30.007 16.95C29.937 16.341 30.301 15.788 30.889 15.627C31.309 15.515 31.736 15.431 32.163 15.34C33.346 15.095 34.2 14.43 34.739 13.352C35.53 11.763 36.335 10.174 37.126 8.57799C37.196 8.43799 37.273 8.37499 37.434 8.38199C37.714 8.39599 38.001 8.38199 38.316 8.38199H38.309Z" fill="#CF2F2F"/>
<path d="M41.767 6.73C41.879 6.366 41.886 6.009 41.781 5.659C41.718 5.442 41.613 5.232 41.501 5.029C41.354 4.742 41.354 4.455 41.536 4.245C41.711 4.042 41.998 3.937 42.229 4.042C42.383 4.112 42.537 4.231 42.621 4.371C43.209 5.33 43.314 6.338 42.894 7.388C42.831 7.542 42.866 7.633 42.964 7.745C43.986 8.977 44.224 10.37 43.79 11.889C43.727 12.113 43.622 12.316 43.349 12.323C43.076 12.33 42.866 12.211 42.74 11.959C42.656 11.784 42.572 11.602 42.495 11.42C42.362 11.133 42.138 10.986 41.816 10.986C41.214 10.986 40.605 10.986 40.003 10.986C39.443 10.986 39.198 10.734 39.198 10.174C39.198 9.537 39.198 8.9 39.198 8.256C39.198 7.731 38.946 7.486 38.421 7.479C38.246 7.479 38.064 7.479 37.896 7.444C37.651 7.402 37.497 7.241 37.483 7.031C37.462 6.807 37.609 6.681 37.784 6.59C38.274 6.345 38.806 6.219 39.352 6.191C40.157 6.149 40.92 6.282 41.641 6.667C41.676 6.688 41.711 6.695 41.767 6.716V6.73Z" fill="#CF2F2F"/>
</g>
<g clip-path="url(#clip2_50_27)">
<path d="M60.309 8.38199C60.309 8.47999 60.309 8.54999 60.309 8.62699C60.309 9.22899 60.309 9.83799 60.309 10.44C60.309 11.336 60.855 11.875 61.744 11.882C62.339 11.882 62.927 11.882 63.522 11.882C63.655 11.882 63.732 11.917 63.788 12.043C63.949 12.379 64.117 12.715 64.285 13.044C64.341 13.149 64.334 13.219 64.264 13.317C62.423 15.69 60.029 17.174 57.082 17.776C55.773 18.042 54.443 18.014 53.12 17.986C52.553 17.979 52.063 17.503 52.007 16.95C51.937 16.341 52.301 15.788 52.889 15.627C53.309 15.515 53.736 15.431 54.163 15.34C55.346 15.095 56.2 14.43 56.739 13.352C57.53 11.763 58.335 10.174 59.126 8.57799C59.196 8.43799 59.273 8.37499 59.434 8.38199C59.714 8.39599 60.001 8.38199 60.316 8.38199H60.309Z" fill="#DADADA"/>
<path d="M63.767 6.73C63.879 6.366 63.886 6.009 63.781 5.659C63.718 5.442 63.613 5.232 63.501 5.029C63.354 4.742 63.354 4.455 63.536 4.245C63.711 4.042 63.998 3.937 64.229 4.042C64.383 4.112 64.537 4.231 64.621 4.371C65.209 5.33 65.314 6.338 64.894 7.388C64.831 7.542 64.866 7.633 64.964 7.745C65.986 8.977 66.224 10.37 65.79 11.889C65.727 12.113 65.622 12.316 65.349 12.323C65.076 12.33 64.866 12.211 64.74 11.959C64.656 11.784 64.572 11.602 64.495 11.42C64.362 11.133 64.138 10.986 63.816 10.986C63.214 10.986 62.605 10.986 62.003 10.986C61.443 10.986 61.198 10.734 61.198 10.174C61.198 9.537 61.198 8.9 61.198 8.256C61.198 7.731 60.946 7.486 60.421 7.479C60.246 7.479 60.064 7.479 59.896 7.444C59.651 7.402 59.497 7.241 59.483 7.031C59.462 6.807 59.609 6.681 59.784 6.59C60.274 6.345 60.806 6.219 61.352 6.191C62.157 6.149 62.92 6.282 63.641 6.667C63.676 6.688 63.711 6.695 63.767 6.716V6.73Z" fill="#DADADA"/>
</g>
<defs>
<clipPath id="clip0_50_27">
<rect width="14" height="14" fill="white" transform="translate(8 4)"/>
</clipPath>
<clipPath id="clip1_50_27">
<rect width="14" height="14" fill="white" transform="translate(30 4)"/>
</clipPath>
<clipPath id="clip2_50_27">
<rect width="14" height="14" fill="white" transform="translate(52 4)"/>
</clipPath>
</defs>
</svg>
